<svg xmlns="http://www.w3.org/2000/svg" viewBox="0 0 64 80" x="0px" y="0px">
    <g data-name="C++">
        <path d="M59,10H5a1,1,0,0,0-1,1V53a1,1,0,0,0,1,1H59a1,1,0,0,0,1-1V11A1,1,0,0,0,59,10Zm-1,2v6H6V12ZM6,52V20H58V52ZM8,15a1,1,0,1,1,1,1A1,1,0,0,1,8,15Zm4,0a1,1,0,1,1,1,1A1,1,0,0,1,12,15Zm4,0a1,1,0,1,1,1,1A1,1,0,0,1,16,15Zm16,0a1,1,0,0,1,1-1H55a1,1,0,0,1,0,2H33A1,1,0,0,1,32,15ZM28,30v1a1,1,0,0,1-2,0V30a4.0042,4.0042,0,0,0-4-4H18a4.0042,4.0042,0,0,0-4,4V42a4.0042,4.0042,0,0,0,4,4h4a4.0042,4.0042,0,0,0,4-4V41a1,1,0,0,1,2,0v1a6.0066,6.0066,0,0,1-6,6H18a6.0066,6.0066,0,0,1-6-6V30a6.0066,6.0066,0,0,1,6-6h4A6.0066,6.0066,0,0,1,28,30Zm12,6a1,1,0,0,1-1,1H36v3a1,1,0,0,1-2,0V37H31a1,1,0,0,1,0-2h3V32a1,1,0,0,1,2,0v3h3A1,1,0,0,1,40,36Zm12,0a1,1,0,0,1-1,1H48v3a1,1,0,0,1-2,0V37H43a1,1,0,0,1,0-2h3V32a1,1,0,0,1,2,0v3h3A1,1,0,0,1,52,36Z"/>
    </g>
</svg>